<svg version="1.1" xmlns="http://www.w3.org/2000/svg" xmlns:xlink="http://www.w3.org/1999/xlink" width="20" height="20" viewBox="0,0,256,256"><g fill="#ffffff" fill-rule="evenodd" stroke="none" stroke-width="1" stroke-linecap="butt" stroke-linejoin="miter" stroke-miterlimit="10" stroke-dasharray="" stroke-dashoffset="0" font-family="none" font-weight="none" font-size="none" text-anchor="none" style="mix-blend-mode: normal"><g transform="translate(0,8) scale(12.8,12.8)"><g id="list-nested"><path d="M5.625,14.375c0,-0.1658 0.06585,-0.3247 0.18306,-0.4419c0.11721,-0.1173 0.27618,-0.1831 0.44194,-0.1831h12.5c0.1658,0 0.3247,0.0658 0.4419,0.1831c0.1173,0.1172 0.1831,0.2761 0.1831,0.4419c0,0.1658 -0.0658,0.3247 -0.1831,0.4419c-0.1172,0.1173 -0.2761,0.1831 -0.4419,0.1831h-12.5c-0.16576,0 -0.32473,-0.0658 -0.44194,-0.1831c-0.11721,-0.1172 -0.18306,-0.2761 -0.18306,-0.4419zM3.125,9.375c0,-0.16576 0.06585,-0.32473 0.18306,-0.44194c0.11721,-0.11721 0.27618,-0.18306 0.44194,-0.18306h12.5c0.1658,0 0.3247,0.06585 0.4419,0.18306c0.1173,0.11721 0.1831,0.27618 0.1831,0.44194c0,0.16576 -0.0658,0.32473 -0.1831,0.44194c-0.1172,0.11721 -0.2761,0.18306 -0.4419,0.18306h-12.5c-0.16576,0 -0.32473,-0.06585 -0.44194,-0.18306c-0.11721,-0.11721 -0.18306,-0.27618 -0.18306,-0.44194zM0.625,4.375c0,-0.16576 0.06585,-0.32473 0.18306,-0.44194c0.11721,-0.11721 0.27618,-0.18306 0.44194,-0.18306h12.5c0.1658,0 0.3247,0.06585 0.4419,0.18306c0.1173,0.11721 0.1831,0.27618 0.1831,0.44194c0,0.16576 -0.0658,0.32473 -0.1831,0.44194c-0.1172,0.11721 -0.2761,0.18306 -0.4419,0.18306h-12.5c-0.16576,0 -0.32473,-0.06585 -0.44194,-0.18306c-0.11721,-0.11721 -0.18306,-0.27618 -0.18306,-0.44194z" id="Vector"></path></g></g></g></svg>