<svg version="1.1" xmlns="http://www.w3.org/2000/svg" xmlns:xlink="http://www.w3.org/1999/xlink" width="20" height="20" viewBox="0,0,256,256"><g fill="#1e293b" fill-rule="nonzero" stroke="none" stroke-width="1" stroke-linecap="butt" stroke-linejoin="miter" stroke-miterlimit="10" stroke-dasharray="" stroke-dashoffset="0" font-family="none" font-weight="none" font-size="none" text-anchor="none" style="mix-blend-mode: normal"><g><g><g transform="scale(12.8,12.8)"><g id="person"><path d="M10,10c0.9946,0 1.9484,-0.39509 2.6517,-1.09835c0.7032,-0.70326 1.0983,-1.65709 1.0983,-2.65165c0,-0.99456 -0.3951,-1.94839 -1.0983,-2.65165c-0.7033,-0.70326 -1.6571,-1.09835 -2.6517,-1.09835c-0.99456,0 -1.94839,0.39509 -2.65165,1.09835c-0.70326,0.70326 -1.09835,1.65709 -1.09835,2.65165c0,0.99456 0.39509,1.94839 1.09835,2.65165c0.70326,0.70326 1.65709,1.09835 2.65165,1.09835zM12.5,6.25c0,0.66304 -0.2634,1.29893 -0.7322,1.76777c-0.4689,0.46884 -1.1048,0.73223 -1.7678,0.73223c-0.66304,0 -1.29893,-0.26339 -1.76777,-0.73223c-0.46884,-0.46884 -0.73223,-1.10473 -0.73223,-1.76777c0,-0.66304 0.26339,-1.29893 0.73223,-1.76777c0.46884,-0.46884 1.10473,-0.73223 1.76777,-0.73223c0.663,0 1.2989,0.26339 1.7678,0.73223c0.4688,0.46884 0.7322,1.10473 0.7322,1.76777zM17.5,16.25c0,1.25 -1.25,1.25 -1.25,1.25h-12.5c0,0 -1.25,0 -1.25,-1.25c0,-1.25 1.25,-5 7.5,-5c6.25,0 7.5,3.75 7.5,5zM16.25,16.245c-0.0013,-0.3075 -0.1925,-1.2325 -1.04,-2.08c-0.815,-0.815 -2.3488,-1.665 -5.21,-1.665c-2.8625,0 -4.395,0.85 -5.21,1.665c-0.8475,0.8475 -1.0375,1.7725 -1.04,2.08z" id="Vector"></path></g></g></g></g></g></svg>