<svg version="1.1" xmlns="http://www.w3.org/2000/svg" xmlns:xlink="http://www.w3.org/1999/xlink" width="16" height="16" viewBox="0,0,256,256"><g fill="#3b82f6" fill-rule="nonzero" stroke="none" stroke-width="1" stroke-linecap="butt" stroke-linejoin="miter" stroke-miterlimit="10" stroke-dasharray="" stroke-dashoffset="0" font-family="none" font-weight="none" font-size="none" text-anchor="none" style="mix-blend-mode: normal"><g transform="translate(0.00924,-0.01643) scale(16,16)"><g id="search"><path d="M11.742,10.344c0.9683,-1.32131 1.402,-2.95951 1.2143,-4.58685c-0.1876,-1.62734 -0.9828,-3.12381 -2.2265,-4.19002c-1.24364,-1.06621 -2.84401,-1.62353 -4.48092,-1.56045c-1.63691,0.06307 -3.18965,0.74188 -4.34757,1.90063c-1.15791,1.15874 -1.83562,2.71197 -1.89752,4.34893c-0.0619,1.63695 0.49656,3.23692 1.56366,4.47976c1.0671,1.2429 2.56414,2.0371 4.19161,2.2236c1.62748,0.1865 3.26536,-0.2484 4.58594,-1.2176h-0.001c0.03,0.04 0.062,0.078 0.098,0.115l3.85,3.85c0.1876,0.1876 0.4419,0.2931 0.7072,0.2932c0.2653,0.0001 0.5197,-0.1052 0.7073,-0.2927c0.1877,-0.1875 0.2932,-0.4419 0.2932,-0.7071c0.0001,-0.2653 -0.1051,-0.5198 -0.2927,-0.7074l-3.85,-3.85c-0.0357,-0.0362 -0.0742,-0.0696 -0.115,-0.1zM12,6.5c0,0.72227 -0.1422,1.43747 -0.4186,2.10476c-0.2764,0.66729 -0.6815,1.27361 -1.1923,1.78434c-0.51069,0.5107 -1.11701,0.9158 -1.7843,1.1922c-0.66729,0.2764 -1.38249,0.4187 -2.10476,0.4187c-0.72227,0 -1.43746,-0.1423 -2.10476,-0.4187c-0.66729,-0.2764 -1.2736,-0.6815 -1.78432,-1.1922c-0.51073,-0.51073 -0.91585,-1.11705 -1.19225,-1.78434c-0.2764,-0.66729 -0.41867,-1.38249 -0.41867,-2.10476c0,-1.45869 0.57947,-2.85764 1.61092,-3.88909c1.03145,-1.03145 2.43039,-1.61091 3.88908,-1.61091c1.45869,0 2.85764,0.57946 3.88906,1.61091c1.0315,1.03145 1.6109,2.4304 1.6109,3.88909z" id="Vector"></path></g></g></g></svg>